<?xml version="1.0" encoding="UTF-8" standalone="no"?>
<!DOCTYPE svg PUBLIC "-//W3C//DTD SVG 1.1//EN" "http://www.w3.org/Graphics/SVG/1.1/DTD/svg11.dtd">
<svg width="100%" height="100%" viewBox="0 0 1200 480" version="1.1" xmlns="http://www.w3.org/2000/svg" xmlns:xlink="http://www.w3.org/1999/xlink" xml:space="preserve" xmlns:serif="http://www.serif.com/" style="fill-rule:evenodd;clip-rule:evenodd;stroke-linejoin:round;stroke-miterlimit:2;">
    <g transform="matrix(1,0,0,1,-960,-1740)">
        <g>
            <g transform="matrix(1,0,0,1,-2.27374e-13,120)">
                <rect x="1860" y="1980" width="300" height="120" style="fill:rgb(27,255,73);"/>
            </g>
            <g transform="matrix(1,0,0,1,-2.27374e-13,120)">
                <rect x="1560" y="1980" width="300" height="120" style="fill:rgb(18,221,59);"/>
            </g>
            <g transform="matrix(1,0,0,1,-2.27374e-13,120)">
                <rect x="1260" y="1980" width="300" height="120" style="fill:rgb(9,187,45);"/>
            </g>
            <g transform="matrix(1,0,0,1,-2.27374e-13,120)">
                <rect x="960" y="1980" width="300" height="120" style="fill:rgb(0,153,31);"/>
            </g>
            <g transform="matrix(1,0,0,1,-2.27374e-13,120)">
                <rect x="1560" y="1860" width="300" height="120" style="fill:rgb(27,255,73);"/>
            </g>
            <g transform="matrix(1,0,0,1,-2.27374e-13,120)">
                <rect x="1260" y="1860" width="300" height="120" style="fill:rgb(18,221,59);"/>
            </g>
            <g transform="matrix(1,0,0,1,-2.27374e-13,120)">
                <rect x="960" y="1860" width="300" height="120" style="fill:rgb(9,187,45);"/>
            </g>
            <g transform="matrix(1,0,0,1,-60,120)">
                <rect x="1140" y="1740" width="300" height="120" style="fill:rgb(18,221,59);"/>
            </g>
            <g transform="matrix(1,0,0,1,-60,120)">
                <rect x="1440" y="1740" width="300" height="120" style="fill:rgb(27,255,73);"/>
            </g>
            <g transform="matrix(1,0,0,1,-60,120)">
                <rect x="1260" y="1620" width="300" height="120" style="fill:rgb(27,255,73);"/>
            </g>
        </g>
    </g>
</svg>
